<svg xmlns="http://www.w3.org/2000/svg" viewBox="0 0 200 100"><defs><style>.cls-1{fill:#fff;}.cls-2,.cls-4{fill:none;stroke-miterlimit:10;}.cls-2{stroke:#fff;stroke-width:3.6px;}.cls-3{fill:#f394bd;}.cls-4{stroke:#f394bd;stroke-width:0.6px;}</style></defs><title>ShakeSum-cuplogo3</title><g id="Layer_3" data-name="Layer 3"><path class="cls-1" d="M106,24.67a9.15,9.15,0,0,1,4.12-.64"/><path class="cls-1" d="M104.54,76.66a7.92,7.92,0,0,0,1.17.19"/><line class="cls-1" x1="104.54" y1="76.66" x2="105.71" y2="76.85"/><line class="cls-1" x1="105.99" y1="24.67" x2="110.11" y2="24.03"/><path class="cls-1" d="M38.51,35.23c-4.78-.4-9.22,6.09-9.92,14.5s2.27,15.54,7.05,15.93l68.9,11C96.9,75,91.76,63.08,92.91,49.19c1-12.12,6.5-21.94,13.08-24.52L36.9,35.35"/><ellipse class="cls-2" cx="108.05" cy="50.46" rx="26.5" ry="15.05" transform="translate(48.8 153.95) rotate(-85.24)"/><path class="cls-3" d="M101.94,26.05a7.43,7.43,0,0,0-3,1.89c-.14.15-.36.35-.6.64L98,29c-.37.4-.79,1-1.2,1.53a32.88,32.88,0,0,0-4.07,8.2,43.68,43.68,0,0,0-1.9,8.07c-.16,1.08-.22,2-.29,2.61s-.06,1-.06,1-.12,1.42-.09,3.61a40.7,40.7,0,0,0,.92,8.24,29.13,29.13,0,0,0,3.22,8.54,18.43,18.43,0,0,0,1.22,1.8,7.11,7.11,0,0,0,2.73,2.24c-.7-1-1.15-1.67-2-2.8a17.12,17.12,0,0,1-1.16-1.72,28.42,28.42,0,0,1-3.11-8.26,39.33,39.33,0,0,1-.9-8c0-2.15.08-3.54.08-3.54s0-.35.06-1,.13-1.5.29-2.56a42.63,42.63,0,0,1,1.86-7.89,31.81,31.81,0,0,1,4-8c.4-.52.79-1.09,1.15-1.47l.37-.44c.23-.28.44-.47.57-.61C100.6,27.58,101.13,27,101.94,26.05Z"/><path class="cls-1" d="M96.24,69.65C102.31,69.1,109,68,115,68.57c3.73.35,6,1.24,9.51-.33,5.21-2.32,10.62-5.3,16.29-1.24,1.46,1,2.2,2.19,4.06,2.58,4.65,1,13.82-4.18,14.1,3.43.14,3.67-1.25,3-5.39,5-4.48,2.18-5.19,2.3-9.33,2.49a24.23,24.23,0,0,0-6.72,1c-4,1.35-6.94,4.34-10.09,7-4.91,4.11-12.82,5.44-16-.64-1-2-1.46-4.26-2.84-6-1.08-1.37-1.73-1.38-3.06-2.19-3.49-2.12-4.38-4.73-6-8.31-.24-.53-1.93,0-1.74.46,1.16,2.53,2,6.16,4.18,8,1.81,1.54,4,1.15,5.56,3.54a24.44,24.44,0,0,1,1.63,3.7c2.16,4.87,5.23,7.4,10.74,6.38a16.94,16.94,0,0,0,5.42-2.15,41.8,41.8,0,0,0,5.54-4.4,26.07,26.07,0,0,1,12.67-5.49c5.36-.81,11.82.76,15.72-4.23,2.83-3.62,1.79-9.07-3.14-9.69-3.26-.42-6,.92-9.4.42-4.29-.65-3.33-1.68-6.51-3.53a7.66,7.66,0,0,0-2.52-.91A12.74,12.74,0,0,0,131,64c-1.68.54-2.38,1.18-4,1.83a24.41,24.41,0,0,1-9.83,1.78,203.59,203.59,0,0,0-20.62,1.18c-.79.07-1.49.93-.27.82Z"/><ellipse class="cls-1" cx="118.52" cy="32.41" rx="16.06" ry="28.28" transform="translate(7.73 85.56) rotate(-40.92)"/><ellipse class="cls-4" cx="119.13" cy="31.89" rx="13.49" ry="25.17" transform="translate(8.23 85.83) rotate(-40.92)"/><ellipse class="cls-4" cx="124.68" cy="30.15" rx="2.78" ry="4.71" transform="translate(23.97 109.6) rotate(-51.86)"/><path class="cls-1" d="M171.06,27.41a2.39,2.39,0,0,0-.53-3.33L146.87,6.82l-.09-.05a1.35,1.35,0,0,0-.26-.15.31.31,0,0,0-.1,0,2.39,2.39,0,0,0-2.7.48L123.25,28a2.38,2.38,0,1,0,3.41,3.33l19-19.48,22,16.07A2.39,2.39,0,0,0,171.06,27.41Z"/></g></svg>