<svg xmlns="http://www.w3.org/2000/svg" viewBox="0 0 216 50"><defs><style>.cls-1{fill:#fff;}</style></defs><title>ShakeSum logoicon</title><g id="Layer_2" data-name="Layer 2"><path class="cls-1" d="M27.51,19.05l-7.75.42C19.59,17.14,18.3,16,15.87,16a3.59,3.59,0,0,0-2.27.63,1.86,1.86,0,0,0-.79,1.5,1.65,1.65,0,0,0,.63,1.22,11.48,11.48,0,0,0,3,1.47A42.92,42.92,0,0,1,21.41,23a9.22,9.22,0,0,1,3.1,2.7,6.84,6.84,0,0,1,1.21,4.15,7.84,7.84,0,0,1-1.31,4.35,9.82,9.82,0,0,1-3.76,3.33,15.18,15.18,0,0,1-7,1.3q-6.37,0-9-2.44A8.19,8.19,0,0,1,2,30.11v-.62L9.74,29a4.73,4.73,0,0,0,1.1,3.54,4.36,4.36,0,0,0,3.06,1,4.62,4.62,0,0,0,3-.86,2.52,2.52,0,0,0,1-2,2.16,2.16,0,0,0-.66-1.52,9.66,9.66,0,0,0-3.23-1.62c-3.94-1.42-6.42-2.72-7.46-3.91A6.35,6.35,0,0,1,5,19.36a7.28,7.28,0,0,1,1.28-4.2,8.32,8.32,0,0,1,3.75-2.95A14.91,14.91,0,0,1,16,11.16Q26.81,11.16,27.51,19.05Z"/><path class="cls-1" d="M38.74,21.37a9.14,9.14,0,0,1,6.88-2.8,5.22,5.22,0,0,1,3.92,1.35,4.57,4.57,0,0,1,1.31,3.29,28.57,28.57,0,0,1-.73,4.6L47.87,38.39H40.42l1.92-9A36.76,36.76,0,0,0,43,25.6c0-1.07-.49-1.6-1.46-1.6a3.59,3.59,0,0,0-2.87,1.54A10.79,10.79,0,0,0,36.86,30L35,38.39H27.54l5.77-26.78h7.44l-2.08,9.68Z"/><path class="cls-1" d="M55.38,24.32a6.73,6.73,0,0,1,3.07-4.25q2.4-1.5,7.45-1.5,5.71,0,7.71,1.44a4.8,4.8,0,0,1,2,4.17,29.49,29.49,0,0,1-1,6,28.82,28.82,0,0,0-.93,5.51,8.11,8.11,0,0,0,.47,2.69H66.9a10.29,10.29,0,0,1-.26-2.21,9.45,9.45,0,0,1-6.52,2.66q-3.66,0-5.27-1.71a5.64,5.64,0,0,1-1.61-4,5.16,5.16,0,0,1,1.43-3.93,7.62,7.62,0,0,1,3.54-1.84,50.28,50.28,0,0,1,5.73-.85,28.25,28.25,0,0,0,4.31-.67,5.55,5.55,0,0,0,.22-1.32,1.34,1.34,0,0,0-.74-1.17,3.85,3.85,0,0,0-2-.43,4.48,4.48,0,0,0-2.08.41,3.44,3.44,0,0,0-1.39,1.72Zm12.05,5.39q-5.13.86-6,1.52a1.9,1.9,0,0,0-.89,1.55,1.81,1.81,0,0,0,.64,1.47,2.44,2.44,0,0,0,1.64.54,4.37,4.37,0,0,0,2.79-1.14A6.4,6.4,0,0,0,67.43,29.71Z"/><path class="cls-1" d="M103.77,19l-8.29,6.7,4.9,12.68H92.07L90,30.24,86,33.42l-1.08,5H77.71l5.75-26.78h7.25l-3,13.86.07.1L95.28,19Z"/><path class="cls-1" d="M123.93,33.42a9.68,9.68,0,0,1-4.24,4.15,15,15,0,0,1-6.57,1.27q-5.73,0-8.15-2.58a8.92,8.92,0,0,1-2.42-6.33,10.9,10.9,0,0,1,1.13-4.88,11.36,11.36,0,0,1,3.07-3.85,11.09,11.09,0,0,1,3.82-2.09,16,16,0,0,1,4.4-.54c3.61,0,6.21.79,7.78,2.36a7.87,7.87,0,0,1,2.35,5.79,25.6,25.6,0,0,1-.49,3.89H109.84c.2,2.59,1.37,3.89,3.48,3.89a4.06,4.06,0,0,0,3.44-1.76ZM117.72,27a3.69,3.69,0,0,0,.13-1.12,2.77,2.77,0,0,0-.88-2.23,3.23,3.23,0,0,0-2.19-.76,3.7,3.7,0,0,0-2.52,1A6.57,6.57,0,0,0,110.51,27Z"/><path class="cls-1" d="M153.34,19.05l-7.75.42c-.17-2.33-1.46-3.49-3.89-3.49a3.59,3.59,0,0,0-2.27.63,1.86,1.86,0,0,0-.79,1.5,1.63,1.63,0,0,0,.64,1.22,11.2,11.2,0,0,0,3,1.47A42.92,42.92,0,0,1,147.24,23a9.22,9.22,0,0,1,3.1,2.7,6.84,6.84,0,0,1,1.21,4.15,7.84,7.84,0,0,1-1.31,4.35,9.82,9.82,0,0,1-3.76,3.33,15.18,15.18,0,0,1-7,1.3c-4.24,0-7.26-.81-9-2.44a8.19,8.19,0,0,1-2.66-6.29v-.62l7.78-.53a4.73,4.73,0,0,0,1.1,3.54,4.36,4.36,0,0,0,3.06,1,4.62,4.62,0,0,0,3-.86,2.52,2.52,0,0,0,1-2,2.16,2.16,0,0,0-.66-1.52,9.66,9.66,0,0,0-3.23-1.62q-5.9-2.13-7.46-3.91a6.35,6.35,0,0,1-1.56-4.31,7.35,7.35,0,0,1,1.28-4.2,8.32,8.32,0,0,1,3.75-2.95,14.91,14.91,0,0,1,5.89-1.05Q152.64,11.16,153.34,19.05Z"/><path class="cls-1" d="M178,19l-4.15,19.38h-7l.67-3-.09-.07a9.52,9.52,0,0,1-7.47,3.48,5.31,5.31,0,0,1-4-1.36,4.53,4.53,0,0,1-1.32-3.28,28.31,28.31,0,0,1,.76-4.82L157.65,19h7.43L163,28.47c-.29,1.39-.45,2.19-.5,2.42a4.79,4.79,0,0,0-.06.83v.06c0,1,.47,1.57,1.42,1.57a3.69,3.69,0,0,0,2.92-1.54,10.53,10.53,0,0,0,1.85-4.4l1.81-8.4Z"/><path class="cls-1" d="M201.26,21.86a13.37,13.37,0,0,1,3.83-2.59,9.73,9.73,0,0,1,3.69-.7,5.18,5.18,0,0,1,3.95,1.4A4.79,4.79,0,0,1,214,23.36a11.65,11.65,0,0,1-.23,2.3l-2.76,12.73h-7.47l1.79-8.28c.45-2.1.7-3.36.75-3.76a7.56,7.56,0,0,0,.07-.84c0-1-.47-1.51-1.42-1.51A3.35,3.35,0,0,0,202,25.38a11,11,0,0,0-1.73,4.39l-1.84,8.62H191l1.75-8.13q.69-3.27.78-3.87a8.32,8.32,0,0,0,.08-.92,1.31,1.31,0,0,0-1.5-1.47,3.59,3.59,0,0,0-2.38,1.16,7.43,7.43,0,0,0-1.86,3.93l-2,9.3h-7.49L182.52,19h6.92l-.6,2.78.07.07a9.82,9.82,0,0,1,7.18-3.29,6.07,6.07,0,0,1,3.23.86A4.38,4.38,0,0,1,201.26,21.86Z"/></g></svg>